<svg xmlns="http://www.w3.org/2000/svg" version="1.1" xmlns:xlink="http://www.w3.org/1999/xlink" width="1500" height="1500" viewBox="0 0 1500 1500"><rect width="1500" height="1500" x="0" y="0" id="background" stroke="transparent" fill="#0093fb"></rect><svg xml:space="preserve" width="1000" height="1000" data-version="2" data-id="lg_3lYF8ob2i1iU9R3zIH" viewBox="0 0 538 333" x="250" y="250"><rect width="100%" height="100%" fill="transparent"></rect><path fill="#fff" d="m232.326 316.385-88.88-271.49-88.48 271.49v-.41q-2.42 6.06-6.66 9.9-4.25 3.84-10.31 3.84-3.23 0-6.26-.61-3.03-.6-6.26-1.41h.4q-23.02-7.27-16.96-25.86l92.11-279.97q2.02-6.46 7.07-10.91 5.05-4.44 11.92-5.25 6.86-1.21 13.33-1.82 6.46-.6 10.1-.6 3.63 0 10.1.6 6.46.61 13.33 1.42 5.65.81 11.11 6.06 5.45 5.25 8.28 10.5 22.62 69.49 45.86 139.99 23.23 70.5 45.85 139.98 5.66 18.59-16.97 25.86-3.23.81-5.86 1.41-2.62.61-5.85.61-5.66 0-10.31-3.84-4.64-3.84-6.66-9.9zm-58.58-87.27q0 12.93-9.09 22.02t-22.02 9.09q-12.93 0-21.82-9.09-8.88-9.09-8.88-22.02 0-12.92 8.88-22.01 8.89-9.09 21.82-9.09t22.02 9.09q9.09 9.09 9.09 22.01m215.731-87.66h77.98q10.5 0 21.81 4.44 11.31 4.44 21.82 11.72h-.41q10.51 7.27 16.16 19.79 5.66 12.53 5.66 28.69v55.34q0 32.73-21.82 48.89-10.5 7.67-21.61 11.92-11.11 4.24-21.61 4.24h-88.08q-10.5 0-21.61-4.24-11.11-4.25-21.61-11.92-21.82-16.16-21.82-48.89v-26.66q0-18.99 23.84-18.99 24.24 0 24.24 18.99v23.43q0 10.51 6.06 18.99 6.06 8.48 21 8.48h67.88q14.94 0 21-8.48 6.06-8.48 6.06-18.99v-48.88q0-10.1-6.06-18.79-6.06-8.68-21-8.68h-77.98q-21 0-43.22-15.36-21.82-16.96-21.82-48.88v-48.08q0-16.16 5.66-28.48 5.65-12.32 16.16-20h-.41q10.51-6.86 21.82-11.31 11.31-4.44 21.81-4.44h88.08q10.5 0 21.81 4.44 11.31 4.45 21.82 11.31h-.41q10.51 7.68 16.16 20 5.66 12.32 5.66 28.48v23.84q0 18.99-24.24 18.99-23.84 0-23.84-18.99v-20.2q0-10.1-6.06-18.58-6.06-8.49-21-8.49h-67.88q-14.94 0-21 8.49-6.06 8.48-6.06 18.58v41.21q0 10.5 6.06 18.78 6.06 8.29 21 8.29"></path></svg></svg>